<svg viewBox="0 0 272.4 269.9" version="1.1" xmlns="http://www.w3.org/2000/svg" data-sanitized-data-name="Layer 1" data-name="Layer 1" id="Layer_1">
  <defs>
    <style>
      .cls-1 {
        fill: #f1ebdf;
        stroke-width: 0px;
      }
    </style>
  </defs>
  <path d="M200.3,37.9c-4.3-.3-8.1,3.4-8.4,8.1-.2,4.2,2.3,7.8,5.9,8.7.1,0,.2,0,.3,0,.2,0,.5,0,.7.2.1,0,.3,0,.4,0,4.3.3,8.1-3.4,8.4-8.1.3-4.7-3-8.7-7.4-9Z" class="cls-1"></path>
  <ellipse transform="translate(126.4 270.1) rotate(-75.6)" ry="7.9" rx="8.5" cy="53.6" cx="237.2" class="cls-1"></ellipse>
  <path d="M222,71.1c-.4,0-.9,0-1,0-1.9,1.3-2.8.9-3.6-.2-.3-.5-.9-.7-1.4-.6-1.6.3-1.8-1.5-3.3-.4-.5.4-1.1.4-1.6,0-.5-.4-1-.8-1.5-1.3-.5-.5-1.3-.5-1.8,0h0c-.5.4-.6,1-.4,1.6,2.2,5.1,2.7,10.7,3.3,16.4.1,1.2,1.6,1.7,2.4.7,3.7-4.4,3-11.3,9.2-13.4.1,0,1.5-1.2.8-2.2-.2-.3-.6-.6-1-.6Z" class="cls-1"></path>
  <path d="M266.1,66.7c.6-12.5,6.3-26.8,0-38.8C253.5,6,223-3.2,199.2,3.1c-5.1,2.1-9.6,5.1-13.8,8.5h-.3s-.2.4-.2.4c-6.8,5.7-13,12.4-19.9,18.1-12.3,10.8-25.3,20.8-38.6,30.5-7,4.9-16.5,4.7-23.7,9.1-7.5,5.2-14.7,10.9-21.8,16.6-6.3,4.1-6.9,11-9.5,17.3-1.3,2.1-6.9,4.1-4.3,7-2.5,2.1-5.5,3.9-7.3,6.5-4.8,6.2-1.8,13.9-4,20.5-.8,2.1-4.9,5.7-3.3,7.3,3.8,1.5-5.3,12.9-7.2,15.2-11.9,13.6-18,32.7-20.4,50.4-3.9,6.8-11.7,10.9-15.4,17.9-4.3,9.6,10.6,3.6,3.5,20.7.3,5.2,8.2-4.6,11.2-4.5,13.5,6.4,20.7,1,34.2-.4,13.7-.9,27-3.7,40.4-6.4,4.8,0,1.9,7.8,1.2,10.5-15.3,14-23.8,20.7-13.6,20.6,8.4-.2,16.8-.3,25.1-.5,3.6.7,33.9-.3,40.2-.2,5.3-.3,13.9-16.9-3.7-23.4-5.1-5.4-6.7-13.9-10.4-20.4-3.9-6.4,17.7-12.5,21.9-17.1,8.6-5.7,17.6-10.9,25.4-17.7,1.7-1.5,1.8-1.5,3.4.2,2,2.1,2.4,2.1,4.2-.3,5.5-5.1,8.5-15.4,16-17.2,1.4,0,2.3-.6,3-1.9,2.9-5.5,6.1-11,8.8-16.6,3.5-7.8,4.1-16.9,10.8-22.9,7.3-6.3,9.6-14.9,12-23.8,2.1-3.8,4.6-7.4,7.1-11.1,3-.9,3.7-3.7,4.4-6.5,1.4-8.9,10.1-14,11.5-22.8ZM118.5,249.9c-5.7,1.3-7.1-13-6.3-18.1,1.7-3,6.1-2.8,8.8-4.4,4.5-2.7,6.3,10.1,8.8,13,1.6,3.6-9.5,4.8-11.3,9.5ZM139.2,253.7c2.7,3.3-9,1.7-11.1,2.4-2.5-4.6,8.5-5.8,11.1-2.4ZM175.6,90.6c-1.3-.4-2.5-1.1-3.5-2-3.7-3.5-7.6-4-8.9-9.8-.5-3.2-4.8-2.7-7.1-4.1-7.3-3.3,1.6-4.7-5.4-6.7-2.7-.8-3.7-2.3-2-4.5.6-.8.3-2.9-.7-3.5-5.4-3.5-1.7-8.1-.6-8.9,3.1-2.1,15.8-9.4,20.9-16.1,2.7-3.5,5.7-1.3,4.2,2.9-.2.6-.4,1.3-.6,1.9-.8,1.9-.5,4.1-1.1,6.1-1.2,4.3-1.3,8.7-.5,13.1,1.2,6.9-.8,13.1,2.4,19.3,3.3,6.7,3,6.8,6.9,9.5-2.1,3.2-2.4,3.4-4.1,2.8ZM242.3,101.1c0,.1-.2.3-.2.4-11.5,11.2-6.3,16.8-14.8,26.8-.6.7-1.8.2-1.7-.7,0,0,0,0,0,0,.3-3.2-2.6-5.8-5.8-5.2-8.9,1.7-6.3-4.7-13-13.9-5.8-10.4-3.6-9.9,1.3-9.9,7.5,0,15.1,3.3,22.7,3.5,2.7.2,5.5-1.6,8-3.8,1.9-1.6,4.6.6,3.4,2.8ZM247.1,83.9c-.5.6-1.1,1.1-1.7,1.6-1,.8-2.2,1.4-3.3,2-.8.5-1.6.9-2.5,1.3-.6.3-1.2.5-1.8.8-1.2.6-2.4,1.2-3.7,1.6-.4.2-.8.3-1.1.5-.6.3-1.3.5-1.9.7-.9.3-1.8.7-2.7.9-.7.4-1.6.6-2.6.6,0,0,0,0,0,0-1.5.2-3,.2-4.6,0-6.3-.2-15.6-2.2-20.9-3.7-2.6,0-4.6-2.5-7-3.5-2.7-1.1-4.4-2.9-6.4-5.1-1.9-2.1-3.4-4.4-4.6-6.9,0-.2-3.2-11.3-3.3-11.9,0,0-3.4-15.9-2.8-18.3.8-3.1,4.8-10.9,5.4-12.1.1-.3,1-9.5,1.7-10.1.4-.3.5-.7.7-1,4.1-.7,11.9-1.8,19.3-1.5,0,0,0,0,0,0,0,0,0,0,0,0,8.7.4,16.8,2.9,17.9,10.3.3,5-1.3,11-1.7,16,3.1-3.5,3.8-16.2,7.2-18.1,0,0,0,0,0,0,23.6-15.6,30.9,9,30.9,9,0,0,8.5,29.8-10.5,47Z" class="cls-1"></path>
</svg>